<?xml version="1.0" encoding="UTF-8"?>
<!--Generator: Apple Native CoreSVG 175.5-->
<!DOCTYPE svg
PUBLIC "-//W3C//DTD SVG 1.1//EN"
       "http://www.w3.org/Graphics/SVG/1.1/DTD/svg11.dtd">
<svg version="1.1" xmlns="http://www.w3.org/2000/svg" xmlns:xlink="http://www.w3.org/1999/xlink" width="3300" height="2200">
 <!--glyph: "", point size: 100.0, font version: "18.0d12e2", template writer version: "101"-->
 <style>.monochrome-0 {fill:#000000}

.SFSymbolsPreview000000 {fill:#000000;opacity:1.0}
</style>
 <g id="Notes">
  <rect height="2200" id="artboard" style="fill:white;opacity:1" width="3300" x="0" y="0"/>
  <line style="fill:none;stroke:black;opacity:1;stroke-width:0.5;" x1="263" x2="3036" y1="292" y2="292"/>
  <text style="stroke:none;fill:black;font-family:sans-serif;font-size:13;font-weight:bold;" transform="matrix(1 0 0 1 263 322)">Weight/Scale Variations</text>
  <text style="stroke:none;fill:black;font-family:sans-serif;font-size:13;text-anchor:middle;" transform="matrix(1 0 0 1 559.711 322)">Ultralight</text>
  <text style="stroke:none;fill:black;font-family:sans-serif;font-size:13;text-anchor:middle;" transform="matrix(1 0 0 1 856.422 322)">Thin</text>
  <text style="stroke:none;fill:black;font-family:sans-serif;font-size:13;text-anchor:middle;" transform="matrix(1 0 0 1 1153.13 322)">Light</text>
  <text style="stroke:none;fill:black;font-family:sans-serif;font-size:13;text-anchor:middle;" transform="matrix(1 0 0 1 1449.84 322)">Regular</text>
  <text style="stroke:none;fill:black;font-family:sans-serif;font-size:13;text-anchor:middle;" transform="matrix(1 0 0 1 1746.56 322)">Medium</text>
  <text style="stroke:none;fill:black;font-family:sans-serif;font-size:13;text-anchor:middle;" transform="matrix(1 0 0 1 2043.27 322)">Semibold</text>
  <text style="stroke:none;fill:black;font-family:sans-serif;font-size:13;text-anchor:middle;" transform="matrix(1 0 0 1 2339.98 322)">Bold</text>
  <text style="stroke:none;fill:black;font-family:sans-serif;font-size:13;text-anchor:middle;" transform="matrix(1 0 0 1 2636.69 322)">Heavy</text>
  <text style="stroke:none;fill:black;font-family:sans-serif;font-size:13;text-anchor:middle;" transform="matrix(1 0 0 1 2933.4 322)">Black</text>
  <line style="fill:none;stroke:black;opacity:1;stroke-width:0.5;" x1="263" x2="3036" y1="1903" y2="1903"/>
  <g transform="matrix(1 0 0 1 263 1933)">
   <path d="M9.24805 0.830078C13.5547 0.830078 17.1387-2.74414 17.1387-7.05078C17.1387-11.3574 13.5449-14.9316 9.23828-14.9316C4.94141-14.9316 1.36719-11.3574 1.36719-7.05078C1.36719-2.74414 4.95117 0.830078 9.24805 0.830078ZM9.24805-0.654297C5.70312-0.654297 2.87109-3.49609 2.87109-7.05078C2.87109-10.6055 5.69336-13.4473 9.23828-13.4473C12.793-13.4473 15.6445-10.6055 15.6445-7.05078C15.6445-3.49609 12.8027-0.654297 9.24805-0.654297ZM5.6543-7.05078C5.6543-6.62109 5.95703-6.32812 6.40625-6.32812L8.50586-6.32812L8.50586-4.20898C8.50586-3.76953 8.79883-3.4668 9.22852-3.4668C9.67773-3.4668 9.9707-3.76953 9.9707-4.20898L9.9707-6.32812L12.0898-6.32812C12.5293-6.32812 12.832-6.62109 12.832-7.05078C12.832-7.49023 12.5293-7.79297 12.0898-7.79297L9.9707-7.79297L9.9707-9.90234C9.9707-10.3516 9.67773-10.6543 9.22852-10.6543C8.79883-10.6543 8.50586-10.3516 8.50586-9.90234L8.50586-7.79297L6.40625-7.79297C5.95703-7.79297 5.6543-7.49023 5.6543-7.05078Z"/>
  </g>
  <g transform="matrix(1 0 0 1 281.867 1933)">
   <path d="M11.709 2.91016C17.1582 2.91016 21.6699-1.61133 21.6699-7.05078C21.6699-12.5 17.1484-17.0117 11.6992-17.0117C6.25977-17.0117 1.74805-12.5 1.74805-7.05078C1.74805-1.61133 6.26953 2.91016 11.709 2.91016ZM11.709 1.25C7.09961 1.25 3.41797-2.44141 3.41797-7.05078C3.41797-11.6602 7.08984-15.3516 11.6992-15.3516C16.3086-15.3516 20.0098-11.6602 20.0098-7.05078C20.0098-2.44141 16.3184 1.25 11.709 1.25ZM7.17773-7.05078C7.17773-6.57227 7.50977-6.25 8.00781-6.25L10.8789-6.25L10.8789-3.36914C10.8789-2.88086 11.2109-2.53906 11.6895-2.53906C12.1777-2.53906 12.5195-2.87109 12.5195-3.36914L12.5195-6.25L15.4004-6.25C15.8887-6.25 16.2305-6.57227 16.2305-7.05078C16.2305-7.53906 15.8887-7.88086 15.4004-7.88086L12.5195-7.88086L12.5195-10.752C12.5195-11.25 12.1777-11.5918 11.6895-11.5918C11.2109-11.5918 10.8789-11.25 10.8789-10.752L10.8789-7.88086L8.00781-7.88086C7.50977-7.88086 7.17773-7.53906 7.17773-7.05078Z"/>
  </g>
  <g transform="matrix(1 0 0 1 305.646 1933)">
   <path d="M14.9707 5.66406C21.9336 5.66406 27.6953-0.0976562 27.6953-7.05078C27.6953-14.0137 21.9238-19.7754 14.9609-19.7754C8.00781-19.7754 2.25586-14.0137 2.25586-7.05078C2.25586-0.0976562 8.01758 5.66406 14.9707 5.66406ZM14.9707 3.84766C8.93555 3.84766 4.08203-1.01562 4.08203-7.05078C4.08203-13.0957 8.92578-17.9492 14.9609-17.9492C21.0059-17.9492 25.8691-13.0957 25.8691-7.05078C25.8691-1.01562 21.0156 3.84766 14.9707 3.84766ZM9.19922-7.05078C9.19922-6.5332 9.57031-6.17188 10.1172-6.17188L14.0625-6.17188L14.0625-2.2168C14.0625-1.67969 14.4336-1.29883 14.9512-1.29883C15.4883-1.29883 15.8594-1.66992 15.8594-2.2168L15.8594-6.17188L19.8145-6.17188C20.3516-6.17188 20.7324-6.5332 20.7324-7.05078C20.7324-7.59766 20.3613-7.96875 19.8145-7.96875L15.8594-7.96875L15.8594-11.9141C15.8594-12.4609 15.4883-12.8418 14.9512-12.8418C14.4336-12.8418 14.0625-12.4609 14.0625-11.9141L14.0625-7.96875L10.1172-7.96875C9.57031-7.96875 9.19922-7.59766 9.19922-7.05078Z"/>
  </g>
  <text style="stroke:none;fill:black;font-family:sans-serif;font-size:13;font-weight:bold;" transform="matrix(1 0 0 1 263 1953)">Design Variations</text>
  <text style="stroke:none;fill:black;font-family:sans-serif;font-size:13;" transform="matrix(1 0 0 1 263 1971)">Symbols are supported in up to nine weights and three scales.</text>
  <text style="stroke:none;fill:black;font-family:sans-serif;font-size:13;" transform="matrix(1 0 0 1 263 1989)">For optimal layout with text and other symbols, vertically align</text>
  <text style="stroke:none;fill:black;font-family:sans-serif;font-size:13;" transform="matrix(1 0 0 1 263 2007)">symbols with the adjacent text.</text>
  <line style="fill:none;stroke:#00AEEF;stroke-width:0.5;opacity:1.0;" x1="776" x2="776" y1="1919" y2="1933"/>
  <g transform="matrix(1 0 0 1 776 1933)">
   <path d="M3.31055 0.15625C3.82812 0.15625 4.08203-0.0390625 4.26758-0.585938L5.52734-4.0332L11.2891-4.0332L12.5488-0.585938C12.7344-0.0390625 12.9883 0.15625 13.4961 0.15625C14.0137 0.15625 14.3457-0.15625 14.3457-0.644531C14.3457-0.810547 14.3164-0.966797 14.2383-1.17188L9.6582-13.3691C9.43359-13.9648 9.0332-14.2676 8.4082-14.2676C7.80273-14.2676 7.39258-13.9746 7.17773-13.3789L2.59766-1.16211C2.51953-0.957031 2.49023-0.800781 2.49023-0.634766C2.49023-0.146484 2.80273 0.15625 3.31055 0.15625ZM6.00586-5.51758L8.37891-12.0898L8.42773-12.0898L10.8008-5.51758Z"/>
  </g>
  <line style="fill:none;stroke:#00AEEF;stroke-width:0.5;opacity:1.0;" x1="793.197" x2="793.197" y1="1919" y2="1933"/>
  <text style="stroke:none;fill:black;font-family:sans-serif;font-size:13;font-weight:bold;" transform="matrix(1 0 0 1 776 1953)">Margins</text>
  <text style="stroke:none;fill:black;font-family:sans-serif;font-size:13;" transform="matrix(1 0 0 1 776 1971)">Leading and trailing margins on the left and right side of each symbol</text>
  <text style="stroke:none;fill:black;font-family:sans-serif;font-size:13;" transform="matrix(1 0 0 1 776 1989)">can be adjusted by modifying the x-location of the margin guidelines.</text>
  <text style="stroke:none;fill:black;font-family:sans-serif;font-size:13;" transform="matrix(1 0 0 1 776 2007)">Modifications are automatically applied proportionally to all</text>
  <text style="stroke:none;fill:black;font-family:sans-serif;font-size:13;" transform="matrix(1 0 0 1 776 2025)">scales and weights.</text>
  <g transform="matrix(1 0 0 1 1289 1933)">
   <path d="M2.8418 1.86523L4.54102 3.57422C5.40039 4.44336 6.38672 4.38477 7.31445 3.35938L18.0078-8.42773L17.041-9.4043L6.42578 2.27539C6.07422 2.67578 5.74219 2.77344 5.27344 2.30469L4.10156 1.14258C3.63281 0.683594 3.74023 0.341797 4.14062-0.0195312L15.6152-10.8203L14.6387-11.7871L3.04688-0.898438C2.06055 0.0195312 1.98242 0.996094 2.8418 1.86523ZM9.25781-16.3281C8.83789-15.918 8.80859-15.3418 9.04297-14.9512C9.27734-14.5898 9.73633-14.3555 10.3809-14.5215C11.8457-14.8633 13.3691-14.9219 14.7949-13.9844L14.209-12.5293C13.8672-11.6992 14.043-11.1133 14.5801-10.5664L16.875-8.25195C17.3633-7.76367 17.7734-7.74414 18.3398-7.8418L19.4043-8.03711L20.0684-7.36328L20.0293-6.80664C19.9902-6.30859 20.1172-5.92773 20.6055-5.44922L21.3672-4.70703C21.8457-4.22852 22.4609-4.19922 22.9297-4.66797L25.8398-7.58789C26.3086-8.05664 26.2891-8.65234 25.8105-9.13086L25.0391-9.89258C24.5605-10.3711 24.1895-10.5273 23.7109-10.4883L23.1348-10.4395L22.4902-11.0742L22.7344-12.1973C22.8613-12.7637 22.7051-13.2031 22.1191-13.7891L19.9219-15.9766C16.582-19.2969 12.1484-19.2188 9.25781-16.3281ZM10.752-15.957C13.1836-17.7344 16.4746-17.4316 18.7012-15.2051L21.1328-12.793C21.3672-12.5586 21.4062-12.373 21.3379-12.0312L21.0156-10.5469L22.5195-9.0625L23.5059-9.12109C23.7598-9.13086 23.8379-9.11133 24.0332-8.91602L24.6094-8.33984L22.168-5.89844L21.5918-6.47461C21.3965-6.66992 21.3672-6.74805 21.377-7.01172L21.4453-7.98828L19.9512-9.47266L18.4277-9.21875C18.1055-9.15039 17.959-9.17969 17.7148-9.41406L15.7129-11.416C15.459-11.6504 15.4297-11.8164 15.5859-12.1875L16.4648-14.2773C14.9023-15.7324 12.8711-16.3574 10.8398-15.7617C10.6836-15.7227 10.625-15.8496 10.752-15.957Z"/>
  </g>
  <text style="stroke:none;fill:black;font-family:sans-serif;font-size:13;font-weight:bold;" transform="matrix(1 0 0 1 1289 1953)">Exporting</text>
  <text style="stroke:none;fill:black;font-family:sans-serif;font-size:13;" transform="matrix(1 0 0 1 1289 1971)">Symbols should be outlined when exporting to ensure the</text>
  <text style="stroke:none;fill:black;font-family:sans-serif;font-size:13;" transform="matrix(1 0 0 1 1289 1989)">design is preserved when submitting to Xcode.</text>
  <text id="template-version" style="stroke:none;fill:black;font-family:sans-serif;font-size:13;text-anchor:end;" transform="matrix(1 0 0 1 3036 1933)">Template v.4.0</text>
  <text style="stroke:none;fill:black;font-family:sans-serif;font-size:13;text-anchor:end;" transform="matrix(1 0 0 1 3036 1951)">Requires Xcode 14 or greater</text>
  <text id="descriptive-name" style="stroke:none;fill:black;font-family:sans-serif;font-size:13;text-anchor:end;" transform="matrix(1 0 0 1 3036 1969)">Generated from emojipicker.animals.and.nature</text>
  <text style="stroke:none;fill:black;font-family:sans-serif;font-size:13;text-anchor:end;" transform="matrix(1 0 0 1 3036 1987)">Typeset at 100 points</text>
  <text style="stroke:none;fill:black;font-family:sans-serif;font-size:13;" transform="matrix(1 0 0 1 263 726)">Small</text>
  <text style="stroke:none;fill:black;font-family:sans-serif;font-size:13;" transform="matrix(1 0 0 1 263 1156)">Medium</text>
  <text style="stroke:none;fill:black;font-family:sans-serif;font-size:13;" transform="matrix(1 0 0 1 263 1586)">Large</text>
 </g>
 <g id="Guides">
  <g id="H-reference" style="fill:#27AAE1;stroke:none;" transform="matrix(1 0 0 1 339 696)">
   <path d="M0.993654 0L3.63775 0L29.3281-67.1323L30.0303-67.1323L30.0303-70.459L28.1226-70.459ZM11.6885-24.4799L46.9815-24.4799L46.2315-26.7285L12.4385-26.7285ZM55.1196 0L57.7637 0L30.6382-70.459L29.4326-70.459L29.4326-67.1323Z"/>
  </g>
  <line id="Baseline-S" style="fill:none;stroke:#27AAE1;opacity:1;stroke-width:0.5;" x1="263" x2="3036" y1="696" y2="696"/>
  <line id="Capline-S" style="fill:none;stroke:#27AAE1;opacity:1;stroke-width:0.5;" x1="263" x2="3036" y1="625.541" y2="625.541"/>
  <g id="H-reference" style="fill:#27AAE1;stroke:none;" transform="matrix(1 0 0 1 339 1126)">
   <path d="M0.993654 0L3.63775 0L29.3281-67.1323L30.0303-67.1323L30.0303-70.459L28.1226-70.459ZM11.6885-24.4799L46.9815-24.4799L46.2315-26.7285L12.4385-26.7285ZM55.1196 0L57.7637 0L30.6382-70.459L29.4326-70.459L29.4326-67.1323Z"/>
  </g>
  <line id="Baseline-M" style="fill:none;stroke:#27AAE1;opacity:1;stroke-width:0.5;" x1="263" x2="3036" y1="1126" y2="1126"/>
  <line id="Capline-M" style="fill:none;stroke:#27AAE1;opacity:1;stroke-width:0.5;" x1="263" x2="3036" y1="1055.54" y2="1055.54"/>
  <g id="H-reference" style="fill:#27AAE1;stroke:none;" transform="matrix(1 0 0 1 339 1556)">
   <path d="M0.993654 0L3.63775 0L29.3281-67.1323L30.0303-67.1323L30.0303-70.459L28.1226-70.459ZM11.6885-24.4799L46.9815-24.4799L46.2315-26.7285L12.4385-26.7285ZM55.1196 0L57.7637 0L30.6382-70.459L29.4326-70.459L29.4326-67.1323Z"/>
  </g>
  <line id="Baseline-L" style="fill:none;stroke:#27AAE1;opacity:1;stroke-width:0.5;" x1="263" x2="3036" y1="1556" y2="1556"/>
  <line id="Capline-L" style="fill:none;stroke:#27AAE1;opacity:1;stroke-width:0.5;" x1="263" x2="3036" y1="1485.54" y2="1485.54"/>
  <line id="left-margin-Ultralight-S" style="fill:none;stroke:#00AEEF;stroke-width:0.5;opacity:1.0;" x1="515.649" x2="515.649" y1="600.785" y2="720.121"/>
  <line id="right-margin-Ultralight-S" style="fill:none;stroke:#00AEEF;stroke-width:0.5;opacity:1.0;" x1="603.773" x2="603.773" y1="600.785" y2="720.121"/>
  <line id="left-margin-Regular-S" style="fill:none;stroke:#00AEEF;stroke-width:0.5;opacity:1.0;" x1="1403.58" x2="1403.58" y1="600.785" y2="720.121"/>
  <line id="right-margin-Regular-S" style="fill:none;stroke:#00AEEF;stroke-width:0.5;opacity:1.0;" x1="1496.11" x2="1496.11" y1="600.785" y2="720.121"/>
  <line id="left-margin-Black-S" style="fill:none;stroke:#00AEEF;stroke-width:0.5;opacity:1.0;" x1="2884.57" x2="2884.57" y1="600.785" y2="720.121"/>
  <line id="right-margin-Black-S" style="fill:none;stroke:#00AEEF;stroke-width:0.5;opacity:1.0;" x1="2982.23" x2="2982.23" y1="600.785" y2="720.121"/>
 </g>
 <g id="Symbols">
  <g id="Black-S" transform="matrix(1 0 0 1 2884.57 696)">
   <path class="monochrome-0 SFSymbolsPreview000000" d="M41.5118-70.3913C44.543-70.9371 46.8098-71.0467 49.8455-71.0467C52.9004-71.0467 55.2174-70.9032 58.2677-70.3505C67.6094-76.1831 77.3939-75.6709 83.691-68.1201C89.3269-61.813 89.8554-52.8411 83.7569-44.8297C91.4952-34.5014 93.4986-24.4584 90.6287-17.0499C86.9691-7.60266 77.718-1.52927 63.7876 2.27726C60.0489 5.69092 54.2567 7.80838 49.853 7.80838C45.4475 7.80838 39.6178 5.69342 35.9375 2.27726C21.9091-1.59051 12.3087-8.15927 9.08677-17.0499C6.32981-24.6574 7.91195-34.0069 15.8081-44.8297C10.109-52.8162 10.7044-61.6144 16.1904-68.0401C22.3051-75.7195 32.3892-76.6091 41.5118-70.3913ZM38.4919-56.5823C34.299-63.0872 30.2072-64.155 26.2164-59.7857C22.2257-55.4164 24.4066-50.5582 32.7591-45.2113C22.7245-35.3986 18.8912-27.5185 21.2594-21.5709C23.6276-15.6233 30.7135-11.5736 42.5172-9.42182C44.3316-6.59185 46.7769-5.17686 49.853-5.17686C52.9291-5.17686 55.4034-6.59185 57.2757-9.42182C69.1896-11.5779 76.2575-15.6276 78.4795-21.5709C80.7015-27.5142 76.783-35.3943 66.7242-45.2113C75.3908-50.6598 77.7715-55.4729 73.8663-59.6506C69.9612-63.8283 65.6847-62.8055 61.0368-56.5823C55.6223-57.56 51.8943-58.0489 49.8527-58.0489C47.8111-58.0489 44.0242-57.56 38.4919-56.5823ZM47.1368-14.9726C44.7199-15.2582 44.0812-15.9896 42.1838-16.7505C41.3587-17.0294 40.5336-16.6807 40.5336-15.9835C40.5336-14.1008 42.8045-10.7962 49.6532-10.7962C56.543-10.7962 58.8342-14.1008 58.8342-15.9835C58.8342-16.6807 58.009-17.0294 57.1838-16.7505C55.2575-15.9779 54.6543-15.2358 52.1348-14.9598L52.1179-19.1557C52.8954-19.3558 57.1336-21.9477 57.1336-24.3468C57.1336-27.3843 53.7757-29.8468 49.6336-29.8468C45.4914-29.8468 42.1336-27.3843 42.1336-24.3468C42.1336-22.7445 43.8107-21.0128 47.1649-19.1516L47.1368-14.9726ZM35.3197-28.0069C37.8581-28.0069 40.1036-30.2042 40.1036-33.378C40.1036-36.6495 37.8581-38.8468 35.3197-38.8468C32.8302-38.8468 30.6336-36.6495 30.6336-33.378C30.6336-30.2042 32.8302-28.0069 35.3197-28.0069ZM64.3211-28.0069C66.8602-28.0069 69.0575-30.2042 69.0575-33.378C69.0575-36.6495 66.8602-38.8468 64.3211-38.8468C61.7821-38.8468 59.6336-36.6495 59.6336-33.378C59.6336-30.2042 61.7821-28.0069 64.3211-28.0069Z"/>
  </g>
  <g id="Regular-S" transform="matrix(1 0 0 1 1403.58 696)">
   <path class="monochrome-0 SFSymbolsPreview000000" d="M37.0861-66.7272C40.1172-67.273 43.1517-67.5462 46.1874-67.5462C49.2422-67.5462 52.2958-67.2695 55.3461-66.7168C64.1593-72.4065 71.8506-72.2868 77.4323-65.8303C82.7886-59.6345 82.0124-52.3688 75.727-44.8297C83.6566-34.7363 86.4724-25.8768 83.7385-18.2647C80.9028-10.3689 72.3727-4.67755 58.4423-0.871011C54.7037 2.54264 50.591 4.31266 46.1874 4.31266C41.7819 4.31266 37.6943 2.54084 34.014-0.87532C20.1227-4.68076 11.5932-10.3674 8.71357-18.2493C5.93306-25.8598 8.67632-34.7286 16.5107-44.8328C10.5423-52.149 9.94737-59.3924 15.2112-65.7768C20.7916-72.545 28.4577-72.6868 37.0861-66.7272ZM35.6764-60.3279C29.11-65.7852 23.8314-66.3292 19.8406-61.9599C15.8499-57.5905 17.3804-51.9556 24.4323-45.0551C15.342-34.5048 11.981-26.2558 14.3492-20.3082C16.7174-14.3607 24.2928-9.68036 37.0754-6.26732C40.0739-3.214 43.1112-1.68734 46.1874-1.68734C49.2635-1.68734 52.338-3.2155 55.4108-6.27182C68.3094-9.67582 75.8697-14.3495 78.0917-20.2928C80.3136-26.2361 76.8703-34.4892 67.7617-45.0523C75.0879-52.1106 76.7984-57.7286 72.8933-61.9063C68.9882-66.084 63.5699-65.562 56.6385-60.3402C51.7127-61.1442 48.2289-61.5462 46.1874-61.5462C44.1458-61.5462 40.6421-61.1401 35.6764-60.3279ZM43.5568-14.9662C41.1399-15.2518 40.5012-15.9831 38.6038-16.7441C37.7787-17.023 36.9536-16.6743 36.9536-15.9771C36.9536-14.0943 39.2245-10.7898 46.0732-10.7898C52.963-10.7898 55.2542-14.0943 55.2542-15.9771C55.2542-16.6743 54.429-17.023 53.6038-16.7441C51.6775-15.9715 51.0743-15.2294 48.5548-14.9534L48.5379-19.1492C49.3154-19.3493 53.5536-21.9413 53.5536-24.3403C53.5536-27.3779 50.1957-29.8403 46.0536-29.8403C41.9114-29.8403 38.5536-27.3779 38.5536-24.3403C38.5536-22.7381 40.2307-21.0064 43.5849-19.1452L43.5568-14.9662ZM31.7397-28.0004C34.2781-28.0004 36.5236-30.1977 36.5236-33.3715C36.5236-36.643 34.2781-38.8403 31.7397-38.8403C29.2502-38.8403 27.0536-36.643 27.0536-33.3715C27.0536-30.1977 29.2502-28.0004 31.7397-28.0004ZM60.7411-28.0004C63.2802-28.0004 65.4775-30.1977 65.4775-33.3715C65.4775-36.643 63.2802-38.8403 60.7411-38.8403C58.2021-38.8403 56.0536-36.643 56.0536-33.3715C56.0536-30.1977 58.2021-28.0004 60.7411-28.0004Z"/>
  </g>
  <g id="Ultralight-S" transform="matrix(1 0 0 1 515.649 696)">
   <path class="monochrome-0 SFSymbolsPreview000000" d="M34.512-64.5983C37.5431-65.1441 40.3037-65.5455 44.0965-65.5455C47.8894-65.5455 50.6142-65.151 53.6644-64.5983C62.442-70.4053 68.8646-70.1776 73.8001-64.517C79.0935-58.2135 77.2211-51.8675 71.0131-44.8842C78.9428-34.7909 82.4843-26.5378 79.7505-18.9257C76.9147-11.0299 69.2619-6.47869 55.3316-2.67216C51.5929 0.741497 48.1039 2.31365 44.0779 2.31365C40.0518 2.31365 36.5958 0.744001 32.9155-2.67216C19.0241-6.4776 11.3631-11.0439 8.48341-18.9257C5.7029-26.5363 9.15544-34.78 16.9898-44.8842C11.2591-51.184 9.35475-58.3083 14.6489-64.517C19.6431-70.5998 26.3681-70.4966 34.512-64.5983ZM34.0392-62.4704C26.602-68.2605 20.6459-68.5113 16.1709-63.223C11.6959-57.9347 12.8543-51.8489 19.6462-44.9658C10.9888-34.6993 7.89537-26.2486 10.3659-19.6138C12.8364-12.9789 20.6968-7.9297 33.9471-4.46628C37.0883-1.27967 40.4652 0.31363 44.0779 0.31363C47.6906 0.31363 51.1039-1.27967 54.3179-4.46628C67.5298-7.90841 75.3772-12.9576 77.8601-19.6138C80.343-26.2699 77.17-34.7206 68.3411-44.9658C75.4089-52.1112 76.7206-58.1969 72.2763-63.223C67.8319-68.2491 61.7719-67.9982 54.0963-62.4704C50.5208-63.1816 47.1813-63.5372 44.0779-63.5372C40.9744-63.5372 37.6282-63.1816 34.0392-62.4704ZM41.3878-13.3726C38.971-13.6582 38.3322-14.3896 36.4348-15.1505C35.6098-15.4294 34.7846-15.0807 34.7846-14.3835C34.7846-12.5008 37.0556-9.1962 43.9042-9.1962C50.7941-9.1962 53.0852-12.5008 53.0852-14.3835C53.0852-15.0807 52.26-15.4294 51.4348-15.1505C49.5085-14.3779 48.9054-13.6358 46.3858-13.3598L46.3689-17.5557C47.1464-17.7558 51.3846-20.3477 51.3846-22.7468C51.3846-25.7843 48.0267-28.2468 43.8846-28.2468C39.7424-28.2468 36.3846-25.7843 36.3846-22.7468C36.3846-21.1445 38.0617-19.4128 41.4159-17.5516L41.3878-13.3726ZM29.5707-27.9069C32.1091-27.9069 34.3546-30.1042 34.3546-33.278C34.3546-36.5495 32.1091-38.7468 29.5707-38.7468C27.0813-38.7468 24.8846-36.5495 24.8846-33.278C24.8846-30.1042 27.0813-27.9069 29.5707-27.9069ZM58.5721-27.9069C61.1112-27.9069 63.3085-30.1042 63.3085-33.278C63.3085-36.5495 61.1112-38.7468 58.5721-38.7468C56.0331-38.7468 53.8846-36.5495 53.8846-33.278C53.8846-30.1042 56.0331-27.9069 58.5721-27.9069Z"/>
  </g>
 </g>
</svg>
