<?xml version="1.0" encoding="UTF-8"?>
<!--Generator: Apple Native CoreSVG 175.5-->
<!DOCTYPE svg
PUBLIC "-//W3C//DTD SVG 1.1//EN"
       "http://www.w3.org/Graphics/SVG/1.1/DTD/svg11.dtd">
<svg version="1.1" xmlns="http://www.w3.org/2000/svg" xmlns:xlink="http://www.w3.org/1999/xlink" width="3300" height="2200">
 <!--glyph: "", point size: 100.0, font version: "18.0d12e2", template writer version: "101"-->
 <style>.monochrome-0 {fill:#000000}

.SFSymbolsPreview000000 {fill:#000000;opacity:1.0}
</style>
 <g id="Notes">
  <rect height="2200" id="artboard" style="fill:white;opacity:1" width="3300" x="0" y="0"/>
  <line style="fill:none;stroke:black;opacity:1;stroke-width:0.5;" x1="263" x2="3036" y1="292" y2="292"/>
  <text style="stroke:none;fill:black;font-family:sans-serif;font-size:13;font-weight:bold;" transform="matrix(1 0 0 1 263 322)">Weight/Scale Variations</text>
  <text style="stroke:none;fill:black;font-family:sans-serif;font-size:13;text-anchor:middle;" transform="matrix(1 0 0 1 559.711 322)">Ultralight</text>
  <text style="stroke:none;fill:black;font-family:sans-serif;font-size:13;text-anchor:middle;" transform="matrix(1 0 0 1 856.422 322)">Thin</text>
  <text style="stroke:none;fill:black;font-family:sans-serif;font-size:13;text-anchor:middle;" transform="matrix(1 0 0 1 1153.13 322)">Light</text>
  <text style="stroke:none;fill:black;font-family:sans-serif;font-size:13;text-anchor:middle;" transform="matrix(1 0 0 1 1449.84 322)">Regular</text>
  <text style="stroke:none;fill:black;font-family:sans-serif;font-size:13;text-anchor:middle;" transform="matrix(1 0 0 1 1746.56 322)">Medium</text>
  <text style="stroke:none;fill:black;font-family:sans-serif;font-size:13;text-anchor:middle;" transform="matrix(1 0 0 1 2043.27 322)">Semibold</text>
  <text style="stroke:none;fill:black;font-family:sans-serif;font-size:13;text-anchor:middle;" transform="matrix(1 0 0 1 2339.98 322)">Bold</text>
  <text style="stroke:none;fill:black;font-family:sans-serif;font-size:13;text-anchor:middle;" transform="matrix(1 0 0 1 2636.69 322)">Heavy</text>
  <text style="stroke:none;fill:black;font-family:sans-serif;font-size:13;text-anchor:middle;" transform="matrix(1 0 0 1 2933.4 322)">Black</text>
  <line style="fill:none;stroke:black;opacity:1;stroke-width:0.5;" x1="263" x2="3036" y1="1903" y2="1903"/>
  <g transform="matrix(1 0 0 1 263 1933)">
   <path d="M9.24805 0.830078C13.5547 0.830078 17.1387-2.74414 17.1387-7.05078C17.1387-11.3574 13.5449-14.9316 9.23828-14.9316C4.94141-14.9316 1.36719-11.3574 1.36719-7.05078C1.36719-2.74414 4.95117 0.830078 9.24805 0.830078ZM9.24805-0.654297C5.70312-0.654297 2.87109-3.49609 2.87109-7.05078C2.87109-10.6055 5.69336-13.4473 9.23828-13.4473C12.793-13.4473 15.6445-10.6055 15.6445-7.05078C15.6445-3.49609 12.8027-0.654297 9.24805-0.654297ZM5.6543-7.05078C5.6543-6.62109 5.95703-6.32812 6.40625-6.32812L8.50586-6.32812L8.50586-4.20898C8.50586-3.76953 8.79883-3.4668 9.22852-3.4668C9.67773-3.4668 9.9707-3.76953 9.9707-4.20898L9.9707-6.32812L12.0898-6.32812C12.5293-6.32812 12.832-6.62109 12.832-7.05078C12.832-7.49023 12.5293-7.79297 12.0898-7.79297L9.9707-7.79297L9.9707-9.90234C9.9707-10.3516 9.67773-10.6543 9.22852-10.6543C8.79883-10.6543 8.50586-10.3516 8.50586-9.90234L8.50586-7.79297L6.40625-7.79297C5.95703-7.79297 5.6543-7.49023 5.6543-7.05078Z"/>
  </g>
  <g transform="matrix(1 0 0 1 281.867 1933)">
   <path d="M11.709 2.91016C17.1582 2.91016 21.6699-1.61133 21.6699-7.05078C21.6699-12.5 17.1484-17.0117 11.6992-17.0117C6.25977-17.0117 1.74805-12.5 1.74805-7.05078C1.74805-1.61133 6.26953 2.91016 11.709 2.91016ZM11.709 1.25C7.09961 1.25 3.41797-2.44141 3.41797-7.05078C3.41797-11.6602 7.08984-15.3516 11.6992-15.3516C16.3086-15.3516 20.0098-11.6602 20.0098-7.05078C20.0098-2.44141 16.3184 1.25 11.709 1.25ZM7.17773-7.05078C7.17773-6.57227 7.50977-6.25 8.00781-6.25L10.8789-6.25L10.8789-3.36914C10.8789-2.88086 11.2109-2.53906 11.6895-2.53906C12.1777-2.53906 12.5195-2.87109 12.5195-3.36914L12.5195-6.25L15.4004-6.25C15.8887-6.25 16.2305-6.57227 16.2305-7.05078C16.2305-7.53906 15.8887-7.88086 15.4004-7.88086L12.5195-7.88086L12.5195-10.752C12.5195-11.25 12.1777-11.5918 11.6895-11.5918C11.2109-11.5918 10.8789-11.25 10.8789-10.752L10.8789-7.88086L8.00781-7.88086C7.50977-7.88086 7.17773-7.53906 7.17773-7.05078Z"/>
  </g>
  <g transform="matrix(1 0 0 1 305.646 1933)">
   <path d="M14.9707 5.66406C21.9336 5.66406 27.6953-0.0976562 27.6953-7.05078C27.6953-14.0137 21.9238-19.7754 14.9609-19.7754C8.00781-19.7754 2.25586-14.0137 2.25586-7.05078C2.25586-0.0976562 8.01758 5.66406 14.9707 5.66406ZM14.9707 3.84766C8.93555 3.84766 4.08203-1.01562 4.08203-7.05078C4.08203-13.0957 8.92578-17.9492 14.9609-17.9492C21.0059-17.9492 25.8691-13.0957 25.8691-7.05078C25.8691-1.01562 21.0156 3.84766 14.9707 3.84766ZM9.19922-7.05078C9.19922-6.5332 9.57031-6.17188 10.1172-6.17188L14.0625-6.17188L14.0625-2.2168C14.0625-1.67969 14.4336-1.29883 14.9512-1.29883C15.4883-1.29883 15.8594-1.66992 15.8594-2.2168L15.8594-6.17188L19.8145-6.17188C20.3516-6.17188 20.7324-6.5332 20.7324-7.05078C20.7324-7.59766 20.3613-7.96875 19.8145-7.96875L15.8594-7.96875L15.8594-11.9141C15.8594-12.4609 15.4883-12.8418 14.9512-12.8418C14.4336-12.8418 14.0625-12.4609 14.0625-11.9141L14.0625-7.96875L10.1172-7.96875C9.57031-7.96875 9.19922-7.59766 9.19922-7.05078Z"/>
  </g>
  <text style="stroke:none;fill:black;font-family:sans-serif;font-size:13;font-weight:bold;" transform="matrix(1 0 0 1 263 1953)">Design Variations</text>
  <text style="stroke:none;fill:black;font-family:sans-serif;font-size:13;" transform="matrix(1 0 0 1 263 1971)">Symbols are supported in up to nine weights and three scales.</text>
  <text style="stroke:none;fill:black;font-family:sans-serif;font-size:13;" transform="matrix(1 0 0 1 263 1989)">For optimal layout with text and other symbols, vertically align</text>
  <text style="stroke:none;fill:black;font-family:sans-serif;font-size:13;" transform="matrix(1 0 0 1 263 2007)">symbols with the adjacent text.</text>
  <line style="fill:none;stroke:#00AEEF;stroke-width:0.5;opacity:1.0;" x1="776" x2="776" y1="1919" y2="1933"/>
  <g transform="matrix(1 0 0 1 776 1933)">
   <path d="M3.31055 0.15625C3.82812 0.15625 4.08203-0.0390625 4.26758-0.585938L5.52734-4.0332L11.2891-4.0332L12.5488-0.585938C12.7344-0.0390625 12.9883 0.15625 13.4961 0.15625C14.0137 0.15625 14.3457-0.15625 14.3457-0.644531C14.3457-0.810547 14.3164-0.966797 14.2383-1.17188L9.6582-13.3691C9.43359-13.9648 9.0332-14.2676 8.4082-14.2676C7.80273-14.2676 7.39258-13.9746 7.17773-13.3789L2.59766-1.16211C2.51953-0.957031 2.49023-0.800781 2.49023-0.634766C2.49023-0.146484 2.80273 0.15625 3.31055 0.15625ZM6.00586-5.51758L8.37891-12.0898L8.42773-12.0898L10.8008-5.51758Z"/>
  </g>
  <line style="fill:none;stroke:#00AEEF;stroke-width:0.5;opacity:1.0;" x1="793.197" x2="793.197" y1="1919" y2="1933"/>
  <text style="stroke:none;fill:black;font-family:sans-serif;font-size:13;font-weight:bold;" transform="matrix(1 0 0 1 776 1953)">Margins</text>
  <text style="stroke:none;fill:black;font-family:sans-serif;font-size:13;" transform="matrix(1 0 0 1 776 1971)">Leading and trailing margins on the left and right side of each symbol</text>
  <text style="stroke:none;fill:black;font-family:sans-serif;font-size:13;" transform="matrix(1 0 0 1 776 1989)">can be adjusted by modifying the x-location of the margin guidelines.</text>
  <text style="stroke:none;fill:black;font-family:sans-serif;font-size:13;" transform="matrix(1 0 0 1 776 2007)">Modifications are automatically applied proportionally to all</text>
  <text style="stroke:none;fill:black;font-family:sans-serif;font-size:13;" transform="matrix(1 0 0 1 776 2025)">scales and weights.</text>
  <g transform="matrix(1 0 0 1 1289 1933)">
   <path d="M2.8418 1.86523L4.54102 3.57422C5.40039 4.44336 6.38672 4.38477 7.31445 3.35938L18.0078-8.42773L17.041-9.4043L6.42578 2.27539C6.07422 2.67578 5.74219 2.77344 5.27344 2.30469L4.10156 1.14258C3.63281 0.683594 3.74023 0.341797 4.14062-0.0195312L15.6152-10.8203L14.6387-11.7871L3.04688-0.898438C2.06055 0.0195312 1.98242 0.996094 2.8418 1.86523ZM9.25781-16.3281C8.83789-15.918 8.80859-15.3418 9.04297-14.9512C9.27734-14.5898 9.73633-14.3555 10.3809-14.5215C11.8457-14.8633 13.3691-14.9219 14.7949-13.9844L14.209-12.5293C13.8672-11.6992 14.043-11.1133 14.5801-10.5664L16.875-8.25195C17.3633-7.76367 17.7734-7.74414 18.3398-7.8418L19.4043-8.03711L20.0684-7.36328L20.0293-6.80664C19.9902-6.30859 20.1172-5.92773 20.6055-5.44922L21.3672-4.70703C21.8457-4.22852 22.4609-4.19922 22.9297-4.66797L25.8398-7.58789C26.3086-8.05664 26.2891-8.65234 25.8105-9.13086L25.0391-9.89258C24.5605-10.3711 24.1895-10.5273 23.7109-10.4883L23.1348-10.4395L22.4902-11.0742L22.7344-12.1973C22.8613-12.7637 22.7051-13.2031 22.1191-13.7891L19.9219-15.9766C16.582-19.2969 12.1484-19.2188 9.25781-16.3281ZM10.752-15.957C13.1836-17.7344 16.4746-17.4316 18.7012-15.2051L21.1328-12.793C21.3672-12.5586 21.4062-12.373 21.3379-12.0312L21.0156-10.5469L22.5195-9.0625L23.5059-9.12109C23.7598-9.13086 23.8379-9.11133 24.0332-8.91602L24.6094-8.33984L22.168-5.89844L21.5918-6.47461C21.3965-6.66992 21.3672-6.74805 21.377-7.01172L21.4453-7.98828L19.9512-9.47266L18.4277-9.21875C18.1055-9.15039 17.959-9.17969 17.7148-9.41406L15.7129-11.416C15.459-11.6504 15.4297-11.8164 15.5859-12.1875L16.4648-14.2773C14.9023-15.7324 12.8711-16.3574 10.8398-15.7617C10.6836-15.7227 10.625-15.8496 10.752-15.957Z"/>
  </g>
  <text style="stroke:none;fill:black;font-family:sans-serif;font-size:13;font-weight:bold;" transform="matrix(1 0 0 1 1289 1953)">Exporting</text>
  <text style="stroke:none;fill:black;font-family:sans-serif;font-size:13;" transform="matrix(1 0 0 1 1289 1971)">Symbols should be outlined when exporting to ensure the</text>
  <text style="stroke:none;fill:black;font-family:sans-serif;font-size:13;" transform="matrix(1 0 0 1 1289 1989)">design is preserved when submitting to Xcode.</text>
  <text id="template-version" style="stroke:none;fill:black;font-family:sans-serif;font-size:13;text-anchor:end;" transform="matrix(1 0 0 1 3036 1933)">Template v.4.0</text>
  <text style="stroke:none;fill:black;font-family:sans-serif;font-size:13;text-anchor:end;" transform="matrix(1 0 0 1 3036 1951)">Requires Xcode 14 or greater</text>
  <text id="descriptive-name" style="stroke:none;fill:black;font-family:sans-serif;font-size:13;text-anchor:end;" transform="matrix(1 0 0 1 3036 1969)">Generated from emojipicker.travel.and.places</text>
  <text style="stroke:none;fill:black;font-family:sans-serif;font-size:13;text-anchor:end;" transform="matrix(1 0 0 1 3036 1987)">Typeset at 100 points</text>
  <text style="stroke:none;fill:black;font-family:sans-serif;font-size:13;" transform="matrix(1 0 0 1 263 726)">Small</text>
  <text style="stroke:none;fill:black;font-family:sans-serif;font-size:13;" transform="matrix(1 0 0 1 263 1156)">Medium</text>
  <text style="stroke:none;fill:black;font-family:sans-serif;font-size:13;" transform="matrix(1 0 0 1 263 1586)">Large</text>
 </g>
 <g id="Guides">
  <g id="H-reference" style="fill:#27AAE1;stroke:none;" transform="matrix(1 0 0 1 339 696)">
   <path d="M0.993654 0L3.63775 0L29.3281-67.1323L30.0303-67.1323L30.0303-70.459L28.1226-70.459ZM11.6885-24.4799L46.9815-24.4799L46.2315-26.7285L12.4385-26.7285ZM55.1196 0L57.7637 0L30.6382-70.459L29.4326-70.459L29.4326-67.1323Z"/>
  </g>
  <line id="Baseline-S" style="fill:none;stroke:#27AAE1;opacity:1;stroke-width:0.5;" x1="263" x2="3036" y1="696" y2="696"/>
  <line id="Capline-S" style="fill:none;stroke:#27AAE1;opacity:1;stroke-width:0.5;" x1="263" x2="3036" y1="625.541" y2="625.541"/>
  <g id="H-reference" style="fill:#27AAE1;stroke:none;" transform="matrix(1 0 0 1 339 1126)">
   <path d="M0.993654 0L3.63775 0L29.3281-67.1323L30.0303-67.1323L30.0303-70.459L28.1226-70.459ZM11.6885-24.4799L46.9815-24.4799L46.2315-26.7285L12.4385-26.7285ZM55.1196 0L57.7637 0L30.6382-70.459L29.4326-70.459L29.4326-67.1323Z"/>
  </g>
  <line id="Baseline-M" style="fill:none;stroke:#27AAE1;opacity:1;stroke-width:0.5;" x1="263" x2="3036" y1="1126" y2="1126"/>
  <line id="Capline-M" style="fill:none;stroke:#27AAE1;opacity:1;stroke-width:0.5;" x1="263" x2="3036" y1="1055.54" y2="1055.54"/>
  <g id="H-reference" style="fill:#27AAE1;stroke:none;" transform="matrix(1 0 0 1 339 1556)">
   <path d="M0.993654 0L3.63775 0L29.3281-67.1323L30.0303-67.1323L30.0303-70.459L28.1226-70.459ZM11.6885-24.4799L46.9815-24.4799L46.2315-26.7285L12.4385-26.7285ZM55.1196 0L57.7637 0L30.6382-70.459L29.4326-70.459L29.4326-67.1323Z"/>
  </g>
  <line id="Baseline-L" style="fill:none;stroke:#27AAE1;opacity:1;stroke-width:0.5;" x1="263" x2="3036" y1="1556" y2="1556"/>
  <line id="Capline-L" style="fill:none;stroke:#27AAE1;opacity:1;stroke-width:0.5;" x1="263" x2="3036" y1="1485.54" y2="1485.54"/>
  <line id="left-margin-Ultralight-S" style="fill:none;stroke:#00AEEF;stroke-width:0.5;opacity:1.0;" x1="515.649" x2="515.649" y1="600.785" y2="720.121"/>
  <line id="right-margin-Ultralight-S" style="fill:none;stroke:#00AEEF;stroke-width:0.5;opacity:1.0;" x1="603.773" x2="603.773" y1="600.785" y2="720.121"/>
  <line id="left-margin-Regular-S" style="fill:none;stroke:#00AEEF;stroke-width:0.5;opacity:1.0;" x1="1403.58" x2="1403.58" y1="600.785" y2="720.121"/>
  <line id="right-margin-Regular-S" style="fill:none;stroke:#FF3B30;stroke-width:0.5;opacity:1.0;" x1="1496.11" x2="1496.11" y1="600.785" y2="720.121"/>
  <line id="left-margin-Black-S" style="fill:none;stroke:#FF3B30;stroke-width:0.5;opacity:1.0;" x1="2884.57" x2="2884.57" y1="600.785" y2="720.121"/>
  <line id="right-margin-Black-S" style="fill:none;stroke:#FF3B30;stroke-width:0.5;opacity:1.0;" x1="2982.23" x2="2982.23" y1="600.785" y2="720.121"/>
 </g>
 <g id="Symbols">
  <g id="Black-S" transform="matrix(1 0 0 1 2884.57 696)">
   <path class="monochrome-0 SFSymbolsPreview000000" d="M49.4803-1.76745C58.8924-1.76745 70.454-2.19083 75.3717-2.77708C80.1589-3.36329 83.0904-6.32692 83.0904-10.9516L83.0904-14.4689C83.0904-19.8426 82.4387-22.7411 79.9315-25.9979L77.1955-29.1244C76.2184-33.7165 74.525-38.5039 73.6131-40.4254C71.9521-44.0404 68.6953-46.255 64.5266-46.8087C62.084-47.1344 57.1338-47.3298 49.4803-47.3298C41.8269-47.3298 36.8766-47.1344 34.434-46.8087C30.2654-46.255 27.0085-44.0404 25.3476-40.4254C24.4357-38.5039 22.7422-33.7165 21.7651-29.1244L19.0295-25.9979C16.5217-22.7411 15.8704-19.8426 15.8704-14.4689L15.8704-10.9516C15.8704-6.32692 18.8015-3.33068 23.5889-2.77708C28.5066-2.2234 40.0682-1.76745 49.4803-1.76745ZM11.1867-8.92994L-2.5611-8.92974L-2.5611-56.5225C-2.5598-58.1315-2.15252-59.3921-1.29082-60.2541C-0.427541-61.1176 0.831108-61.5206 2.42672-61.5108L20.6442-61.5108C21.6737-61.5084 22.3909-61.7552 22.8547-62.2212C23.3198-62.6888 23.5677-63.4147 23.5673-64.456L23.5673-75.6331C23.575-77.2195 24.0011-78.47 24.8876-79.3279C25.7726-80.1843 27.0381-80.5734 28.6096-80.5399L60.2262-80.5398C61.7784-80.5267 63.0193-80.1 63.8945-79.2259C64.7752-78.3463 65.1875-77.1116 65.1624-75.6002L65.1616-64.4502C65.116-63.336 65.3446-62.5932 65.7978-62.155C66.261-61.7072 67.0609-61.4742 68.2789-61.511L96.4524-61.5108C98.0669-61.5434 99.3507-61.1411 100.248-60.2615C101.15-59.3772 101.565-58.1065 101.53-56.5341L101.53-8.92994L87.8025-8.92994L87.8027-44.8897C87.8262-45.9731 87.5856-46.7112 87.1205-47.1671C86.6506-47.6275 85.884-47.8678 84.7447-47.845L56.6507-47.8455C54.9697-47.794 53.6523-48.1777 52.7489-49.0511C51.8357-49.934 51.4375-51.2279 51.5037-52.825L51.5038-63.9703C51.5207-64.9932 51.2834-65.704 50.8224-66.1644C50.3559-66.6302 49.6167-66.8845 48.559-66.8935L40.2652-66.8937C39.1638-66.917 38.4115-66.6857 37.9553-66.2442C37.5006-65.8042 37.2495-65.0673 37.2442-63.9818L37.2442-52.7747C37.2447-51.2415 36.8234-50.0073 35.9493-49.1289C35.0738-48.2489 33.8432-47.8256 32.3188-47.8291L14.1684-47.8291C13.0575-47.8359 12.3093-47.5963 11.8714-47.1583C11.432-46.7188 11.1876-45.9624 11.1867-44.8399L11.1867-8.92994ZM30.135-32.4789C30.4933-33.8793 31.1446-35.9311 31.5355-36.7453C32.5125-38.797 33.8478-39.5461 36.3555-39.8718C37.6256-40.0672 42.12-40.1323 49.4803-40.1323C56.8406-40.1323 61.335-40.0672 62.6377-39.8718C65.1129-39.5461 66.4481-38.797 67.4251-36.7453C67.816-35.9311 68.4999-33.8793 68.8256-32.4789C69.249-30.6877 68.4673-29.5152 66.5133-29.5478C64.0381-29.5803 59.4786-29.8083 49.4803-29.8083C39.5145-29.8083 34.9551-29.5803 32.4473-29.5478C30.4933-29.5152 29.6791-30.6877 30.135-32.4789ZM19.6482 6.40707L23.0353 6.40707C25.1522 6.40707 26.8132 4.74611 26.8132 2.6292L26.8132-4.50311L15.8704-10.9516L15.8704 2.6292C15.8704 4.74611 17.5313 6.40707 19.6482 6.40707ZM75.9254 6.40707L79.3125 6.40707C81.4296 6.40707 83.0904 4.74611 83.0904 2.6292L83.0904-10.9516L72.1475-4.50311L72.1475 2.6292C72.1475 4.74611 73.8085 6.40707 75.9254 6.40707ZM41.9246-11.2772C39.7751-11.2772 38.2119-12.8405 38.2119-14.99C38.2119-17.1395 39.7751-18.7027 41.9246-18.7027L57.0361-18.7027C59.1855-18.7027 60.7488-17.1395 60.7488-14.99C60.7488-12.8405 59.1855-11.2772 57.0361-11.2772L41.9246-11.2772ZM69.5095-9.94193C66.6436-9.94193 64.4615-12.124 64.4615-14.99C64.4615-17.8559 66.6436-20.038 69.5095-20.038C72.3755-20.038 74.5575-17.8559 74.5575-14.99C74.5575-12.124 72.3755-9.94193 69.5095-9.94193ZM29.4512-9.94193C26.5852-9.94193 24.4031-12.124 24.4031-14.99C24.4031-17.8559 26.5852-20.038 29.4512-20.038C32.3171-20.038 34.4991-17.8559 34.4991-14.99C34.4991-12.124 32.3171-9.94193 29.4512-9.94193Z"/>
  </g>
  <g id="Regular-S" transform="matrix(1 0 0 1 1403.58 696)">
   <path class="monochrome-0 SFSymbolsPreview000000" d="M46.5828-3.67327C55.278-3.67327 66.6763-4.09666 71.5287-4.65031C75.111-5.04108 77.0979-7.06024 77.0979-10.4146L77.0979-14.9087C77.0979-19.1424 76.2836-21.6174 73.8084-24.809L71.6916-27.5771C70.7471-32.169 69.0537-36.9889 68.1744-38.8777C66.8065-41.7436 64.1361-43.5673 60.6189-44.0232C58.8929-44.2512 53.3892-44.3815 46.5828-44.3815C39.7764-44.3815 34.24-44.2187 32.5466-44.0232C29.0294-43.5999 26.3589-41.7436 24.9911-38.8777C24.1119-36.9889 22.4184-32.169 21.474-27.5771L19.3572-24.809C16.8821-21.6174 16.0679-19.1424 16.0679-14.9087L16.0679-10.4146C16.0679-7.06024 18.0545-5.04108 21.6368-4.65031C26.4892-4.09666 37.8875-3.67327 46.5828-3.67327ZM7.58946-3.20244L0.551274-3.20244L0.551274-55.6255C0.552577-57.2346 0.959851-58.4951 1.82155-59.3571C2.68483-60.2207 3.94348-60.6237 5.53909-60.6139L22.1615-60.6139C23.1911-60.6115 23.9082-60.8582 24.372-61.3243C24.8372-61.7919 25.085-62.5177 25.0846-63.5591L25.0846-73.3859C25.0924-74.9723 25.5184-76.2228 26.4049-77.0807C27.2899-77.9371 28.5554-78.3262 30.1269-78.2927L53.0918-78.2926C54.644-78.2795 55.8849-77.8528 56.7601-76.9787C57.6408-76.0991 58.0531-74.8644 58.028-73.353L58.0272-63.5532C57.9816-62.439 58.2102-61.6963 58.6634-61.258C59.1266-60.8103 59.9265-60.5773 61.1445-60.6141L87.5045-60.6139C89.119-60.6465 90.4028-60.2442 91.3004-59.3645C92.2026-58.4803 92.6167-57.2096 92.5825-55.6372L92.5825-3.20244L85.572-3.20244L85.5722-50.6703C85.5957-51.7536 85.3551-52.4917 84.89-52.9476C84.4202-53.4081 83.6535-53.6483 82.5142-53.6255L56.126-53.626C54.445-53.5745 53.1276-53.9582 52.2242-54.8316C51.311-55.7146 50.9128-57.0085 50.979-58.6056L50.9791-68.3408C50.996-69.3637 50.7587-70.0745 50.2977-70.5348C49.8312-71.0007 49.092-71.255 48.0343-71.2639L35.1558-71.2642C34.0543-71.2875 33.302-71.0562 32.8458-70.6147C32.3911-70.1747 32.14-69.4378 32.1347-68.3523L32.1347-58.5552C32.1352-57.0221 31.7139-55.7879 30.8398-54.9094C29.9643-54.0295 28.7337-53.6061 27.2093-53.6096L10.5712-53.6096C9.46026-53.6164 8.71204-53.3769 8.27419-52.9389C7.83476-52.4993 7.59037-51.7429 7.58946-50.6205L7.58946-3.20244ZM26.9126-29.7591C27.4662-32.3644 28.7363-36.1421 29.583-37.6076C30.2344-38.7801 30.8857-39.2034 32.1232-39.3662C34.0121-39.6268 38.3108-39.8222 46.5828-39.8222C54.8546-39.8222 59.1534-39.6919 61.0423-39.3662C62.2473-39.1708 62.866-38.7801 63.5825-37.6076C64.4618-36.1747 65.6016-32.3644 66.253-29.7591C66.5135-28.7495 66.0576-28.4239 65.048-28.489C60.8795-28.7495 55.7665-29.0426 46.5828-29.0426C37.399-29.0426 32.2535-28.7495 28.1175-28.489C27.108-28.4239 26.6846-28.7495 26.9126-29.7591ZM19.4874 3.45877L22.5486 3.45877C24.5026 3.45877 26.0007 1.99328 26.0007 0.0718542L26.0007-6.37634L16.0679-11.0984L16.0679 0.0718542C16.0679 1.99328 17.566 3.45877 19.4874 3.45877ZM70.6168 3.45877L73.6456 3.45877C75.5995 3.45877 77.0979 1.99328 77.0979 0.0718542L77.0979-11.0984L67.1648-6.37634L67.1648 0.0718542C67.1648 1.99328 68.6628 3.45877 70.6168 3.45877ZM39.7112-11.6521C37.8875-11.6521 36.6174-12.9548 36.6174-14.7785C36.6174-16.6022 37.8875-17.8723 39.7112-17.8723L53.4543-17.8723C55.278-17.8723 56.5481-16.6022 56.5481-14.7785C56.5481-12.9548 55.278-11.6521 53.4543-11.6521L39.7112-11.6521ZM64.9829-10.5122C62.5404-10.5122 60.6841-12.3685 60.6841-14.8111C60.6841-17.2536 62.5404-19.1099 64.9829-19.1099C67.4254-19.1099 69.2816-17.2536 69.2816-14.8111C69.2816-12.3685 67.4254-10.5122 64.9829-10.5122ZM28.1827-10.5122C25.7402-10.5122 23.8839-12.3685 23.8839-14.8111C23.8839-17.2536 25.7402-19.1099 28.1827-19.1099C30.6252-19.1099 32.4815-17.2536 32.4815-14.8111C32.4815-12.3685 30.6252-10.5122 28.1827-10.5122Z"/>
  </g>
  <g id="Ultralight-S" transform="matrix(1 0 0 1 515.649 696)">
   <path class="monochrome-0 SFSymbolsPreview000000" d="M43.9372-4.52026C51.997-4.52026 63.3355-4.94367 68.1276-5.49736C70.953-5.82759 72.6671-7.21076 72.6671-10.111L72.6671-14.6055C72.6671-19.2332 71.5197-21.3146 69.6502-23.8098L67.3819-26.7598C66.4676-31.352 64.7741-36.2025 63.8947-38.0612C62.5571-40.897 59.9773-42.2059 57.2171-42.5709C55.4607-42.7989 49.5931-42.9292 43.9372-42.9292C38.2813-42.9292 32.3812-42.7967 30.627-42.5709C27.8971-42.2082 25.3174-40.897 23.9798-38.0612C23.1004-36.2025 21.4069-31.352 20.4927-26.7598L18.2242-23.8098C16.3245-21.3146 15.1771-19.2332 15.1771-14.6055L15.1771-10.111C15.1771-7.21076 16.9215-5.82759 19.7165-5.49736C24.5087-4.94367 35.8472-4.52026 43.9372-4.52026ZM5.6898-0.219613L3.6898-0.219613L3.69032-47.3192C3.69162-48.9283 4.0989-50.1888 4.9606-51.0508C5.82388-51.9144 7.08253-52.3173 8.67813-52.3076L22.583-52.3076C23.6126-52.3052 24.3297-52.5519 24.7935-53.018C25.2587-53.4855 25.5065-54.2114 25.5061-55.2528L25.5061-71.5762C25.5139-73.1626 25.94-74.4131 26.8264-75.271C27.7115-76.1274 28.9769-76.5165 30.5484-76.483L47.4603-76.4829C49.0126-76.4698 50.2534-76.043 51.1286-75.1689C52.0093-74.2893 52.4217-73.0546 52.3965-71.5432L52.3957-55.2467C52.3501-54.1325 52.5787-53.3898 53.032-52.9515C53.4951-52.5037 54.2951-52.2707 55.513-52.3076L79.1051-52.3074C80.7196-52.3399 82.0034-51.9377 82.901-51.058C83.8032-50.1738 84.2173-48.903 84.1831-47.3306L84.1831-0.219624L82.1831-0.219624L82.1833-47.3523C82.2068-48.4357 81.9662-49.1738 81.501-49.6296C81.0312-50.0901 80.2645-50.3303 79.1253-50.3076L55.5436-50.308C53.8626-50.2566 52.5451-50.6403 51.6418-51.5137C50.7286-52.3966 50.3303-53.6905 50.3965-55.2876L50.3967-71.5598C50.4136-72.5827 50.1762-73.2935 49.7153-73.7538C49.2488-74.2197 48.5096-74.474 47.4519-74.483L30.5272-74.4832C29.4257-74.5065 28.6735-74.2752 28.2173-73.8337C27.7625-73.3937 27.5114-72.6568 27.5061-71.5713L27.5061-55.2532C27.5067-53.72 27.0853-52.4858 26.2113-51.6074C25.3357-50.7274 24.1051-50.3041 22.5807-50.3076L8.67202-50.3076C7.56112-50.3144 6.8129-50.0748 6.37505-49.6368C5.93562-49.1973 5.69123-48.4408 5.69032-47.3184L5.6898-0.219613ZM24.296-28.5785C25.092-32.2744 26.241-35.3557 27.0575-36.7607C27.8604-38.1452 29.0266-39.1441 31.1123-39.3978C33.1527-39.6583 37.7547-39.7628 43.9372-39.7628C50.0895-39.7628 54.6914-39.6629 56.7622-39.3978C58.8153-39.1418 60.0096-38.1452 60.817-36.7607C61.6357-35.358 62.7454-32.2744 63.5785-28.5785C63.7179-27.9626 63.5042-27.3946 62.5854-27.4597C58.0229-27.7809 53.3033-27.9528 43.9372-27.9528C34.5711-27.9528 29.8493-27.7809 25.289-27.4597C24.3703-27.3946 24.1589-27.9626 24.296-28.5785ZM18.3242 2.0065L21.1434 2.0065C22.8855 2.0065 24.2624 0.631773 24.2624-1.10805L24.2624-7.04174L15.1771-11.4008L15.1771-1.10805C15.1771 0.631773 16.5541 2.0065 18.3242 2.0065ZM66.7311 2.0065L69.548 2.0065C71.3203 2.0065 72.6671 0.631773 72.6671-1.10805L72.6671-11.4008L63.5817-7.04174L63.5817-1.10805C63.5817 0.631773 64.9587 2.0065 66.7311 2.0065ZM37.7013-11.9241C36.3621-11.9241 35.4554-12.8028 35.4554-14.1723C35.4554-15.5419 36.3621-16.4486 37.7013-16.4486L50.1429-16.4486C51.5124-16.4486 52.4191-15.5419 52.4191-14.1723C52.4191-12.8028 51.5124-11.9241 50.1429-11.9241L37.7013-11.9241ZM62.3386-11.5717C60.4714-11.5717 59.1298-12.9435 59.1298-14.8107C59.1298-16.6476 60.4714-18.0193 62.3386-18.0193C64.1754-18.0193 65.5473-16.6476 65.5473-14.8107C65.5473-12.9435 64.1754-11.5717 62.3386-11.5717ZM25.5359-11.5717C23.6687-11.5717 22.3273-12.9435 22.3273-14.8107C22.3273-16.6476 23.6687-18.0193 25.5359-18.0193C27.3728-18.0193 28.7446-16.6476 28.7446-14.8107C28.7446-12.9435 27.3728-11.5717 25.5359-11.5717Z"/>
  </g>
 </g>
</svg>
